<mxfile host="app.diagrams.net" modified="2020-06-19T09:53:13.983Z" agent="5.0 (Windows NT 10.0; Win64; x64) AppleWebKit/537.36 (KHTML, like Gecko) Chrome/83.0.4103.97 Safari/537.36 Edg/83.0.478.50" etag="s-70xA71Dkqtf1VS7wxh" version="13.2.6" type="github">
  <diagram id="9fwY3RKMy3cZvrA1hDyB" name="第 1 页">
    <mxGraphModel dx="460" dy="776" grid="1" gridSize="10" guides="1" tooltips="1" connect="1" arrows="1" fold="1" page="1" pageScale="1" pageWidth="827" pageHeight="1169" math="0" shadow="0">
      <root>
        <mxCell id="0" />
        <mxCell id="1" parent="0" />
        <mxCell id="O64I71RgjJb-OWmJ1TGh-1" value="" style="rounded=0;whiteSpace=wrap;html=1;" parent="1" vertex="1">
          <mxGeometry x="310" y="270" width="480" height="300" as="geometry" />
        </mxCell>
        <mxCell id="O64I71RgjJb-OWmJ1TGh-5" style="rounded=0;orthogonalLoop=1;jettySize=auto;html=1;exitX=0;exitY=0.5;exitDx=0;exitDy=0;entryX=1;entryY=0.5;entryDx=0;entryDy=0;dashed=1;" parent="1" edge="1">
          <mxGeometry relative="1" as="geometry">
            <mxPoint x="640" y="427.5" as="sourcePoint" />
            <mxPoint x="540" y="320" as="targetPoint" />
          </mxGeometry>
        </mxCell>
        <mxCell id="O64I71RgjJb-OWmJ1TGh-17" value="&amp;lt;&amp;lt;extend&amp;gt;&amp;gt;" style="edgeLabel;html=1;align=center;verticalAlign=middle;resizable=0;points=[];" parent="O64I71RgjJb-OWmJ1TGh-5" vertex="1" connectable="0">
          <mxGeometry x="-0.1393" y="4" relative="1" as="geometry">
            <mxPoint as="offset" />
          </mxGeometry>
        </mxCell>
        <mxCell id="O64I71RgjJb-OWmJ1TGh-6" style="rounded=0;orthogonalLoop=1;jettySize=auto;html=1;exitX=0;exitY=0.5;exitDx=0;exitDy=0;dashed=1;" parent="1" edge="1">
          <mxGeometry relative="1" as="geometry">
            <mxPoint x="640" y="427.5" as="sourcePoint" />
            <mxPoint x="540" y="427.5" as="targetPoint" />
          </mxGeometry>
        </mxCell>
        <mxCell id="O64I71RgjJb-OWmJ1TGh-18" value="&amp;lt;&amp;lt;extend&amp;gt;&amp;gt;" style="edgeLabel;html=1;align=center;verticalAlign=middle;resizable=0;points=[];" parent="O64I71RgjJb-OWmJ1TGh-6" vertex="1" connectable="0">
          <mxGeometry x="0.26" relative="1" as="geometry">
            <mxPoint x="13" as="offset" />
          </mxGeometry>
        </mxCell>
        <mxCell id="O64I71RgjJb-OWmJ1TGh-7" style="rounded=0;orthogonalLoop=1;jettySize=auto;html=1;exitX=0;exitY=0.5;exitDx=0;exitDy=0;entryX=1;entryY=0.5;entryDx=0;entryDy=0;dashed=1;" parent="1" edge="1">
          <mxGeometry relative="1" as="geometry">
            <mxPoint x="640" y="427.5" as="sourcePoint" />
            <mxPoint x="540" y="530" as="targetPoint" />
          </mxGeometry>
        </mxCell>
        <mxCell id="O64I71RgjJb-OWmJ1TGh-19" value="&amp;lt;&amp;lt;extend&amp;gt;&amp;gt;" style="edgeLabel;html=1;align=center;verticalAlign=middle;resizable=0;points=[];" parent="O64I71RgjJb-OWmJ1TGh-7" vertex="1" connectable="0">
          <mxGeometry x="0.3185" relative="1" as="geometry">
            <mxPoint as="offset" />
          </mxGeometry>
        </mxCell>
        <mxCell id="O64I71RgjJb-OWmJ1TGh-9" style="rounded=0;orthogonalLoop=1;jettySize=auto;html=1;exitX=0.5;exitY=0.5;exitDx=0;exitDy=0;exitPerimeter=0;entryX=0;entryY=0.5;entryDx=0;entryDy=0;endArrow=none;endFill=0;" parent="1" source="O64I71RgjJb-OWmJ1TGh-12" edge="1">
          <mxGeometry relative="1" as="geometry">
            <mxPoint x="420" y="320" as="targetPoint" />
          </mxGeometry>
        </mxCell>
        <mxCell id="O64I71RgjJb-OWmJ1TGh-10" style="rounded=0;orthogonalLoop=1;jettySize=auto;html=1;exitX=0.5;exitY=0.5;exitDx=0;exitDy=0;exitPerimeter=0;entryX=0;entryY=0.5;entryDx=0;entryDy=0;endFill=0;endArrow=none;" parent="1" source="O64I71RgjJb-OWmJ1TGh-12" edge="1">
          <mxGeometry relative="1" as="geometry">
            <mxPoint x="420" y="427.5" as="targetPoint" />
          </mxGeometry>
        </mxCell>
        <mxCell id="O64I71RgjJb-OWmJ1TGh-11" style="rounded=0;orthogonalLoop=1;jettySize=auto;html=1;exitX=0.5;exitY=0.5;exitDx=0;exitDy=0;exitPerimeter=0;entryX=0;entryY=0.5;entryDx=0;entryDy=0;endFill=0;endArrow=none;" parent="1" source="O64I71RgjJb-OWmJ1TGh-12" edge="1">
          <mxGeometry relative="1" as="geometry">
            <mxPoint x="420" y="530" as="targetPoint" />
          </mxGeometry>
        </mxCell>
        <mxCell id="O64I71RgjJb-OWmJ1TGh-12" value="用户" style="shape=umlActor;verticalLabelPosition=bottom;labelBackgroundColor=#ffffff;verticalAlign=top;html=1;outlineConnect=0;" parent="1" vertex="1">
          <mxGeometry x="240" y="382.5" width="40" height="90" as="geometry" />
        </mxCell>
        <mxCell id="O64I71RgjJb-OWmJ1TGh-13" style="rounded=0;orthogonalLoop=1;jettySize=auto;html=1;exitX=0.5;exitY=0.5;exitDx=0;exitDy=0;exitPerimeter=0;endFill=0;endArrow=none;" parent="1" source="O64I71RgjJb-OWmJ1TGh-14" edge="1">
          <mxGeometry relative="1" as="geometry">
            <mxPoint x="760" y="427.5" as="targetPoint" />
          </mxGeometry>
        </mxCell>
        <mxCell id="O64I71RgjJb-OWmJ1TGh-14" value="管理员" style="shape=umlActor;verticalLabelPosition=bottom;labelBackgroundColor=#ffffff;verticalAlign=top;html=1;outlineConnect=0;" parent="1" vertex="1">
          <mxGeometry x="820" y="380" width="40" height="95" as="geometry" />
        </mxCell>
        <mxCell id="ucw7WnInDzvGJXWTbbgz-1" value="个人管理模块" style="ellipse;whiteSpace=wrap;html=1;" vertex="1" parent="1">
          <mxGeometry x="414" y="280" width="126" height="80" as="geometry" />
        </mxCell>
        <mxCell id="ucw7WnInDzvGJXWTbbgz-2" value="课程模块" style="ellipse;whiteSpace=wrap;html=1;" vertex="1" parent="1">
          <mxGeometry x="420" y="387.5" width="120" height="80" as="geometry" />
        </mxCell>
        <mxCell id="ucw7WnInDzvGJXWTbbgz-3" value="社区模块" style="ellipse;whiteSpace=wrap;html=1;" vertex="1" parent="1">
          <mxGeometry x="420" y="490" width="120" height="80" as="geometry" />
        </mxCell>
        <mxCell id="ucw7WnInDzvGJXWTbbgz-4" value="后台管理模块" style="ellipse;whiteSpace=wrap;html=1;" vertex="1" parent="1">
          <mxGeometry x="640" y="388" width="120" height="80" as="geometry" />
        </mxCell>
      </root>
    </mxGraphModel>
  </diagram>
</mxfile>
